<svg xmlns="http://www.w3.org/2000/svg" viewBox="0 0 960 600" role="img" aria-labelledby="title desc">
  <title id="title">Human-object interaction illustration</title>
  <desc id="desc">A person reaching toward objects with relation lines and interaction nodes.</desc>
  <defs>
    <linearGradient id="bg" x1="0" x2="1" y1="0" y2="1">
      <stop offset="0" stop-color="#f3f7ff"/>
      <stop offset="1" stop-color="#e8fbf4"/>
    </linearGradient>
    <linearGradient id="accent" x1="0" x2="1" y1="0" y2="1">
      <stop offset="0" stop-color="#2563eb"/>
      <stop offset="1" stop-color="#0f766e"/>
    </linearGradient>
    <filter id="shadow" x="-20%" y="-20%" width="140%" height="140%">
      <feDropShadow dx="0" dy="18" stdDeviation="18" flood-color="#1f2937" flood-opacity=".16"/>
    </filter>
  </defs>
  <rect width="960" height="600" rx="28" fill="url(#bg)"/>
  <g opacity=".62" stroke="#b7c5d8" stroke-width="2">
    <path d="M82 128h796M82 242h796M82 356h796M82 470h796"/>
    <path d="M178 84v432M340 84v432M502 84v432M664 84v432M826 84v432"/>
  </g>
  <g filter="url(#shadow)">
    <rect x="632" y="240" width="160" height="160" rx="20" fill="#fff"/>
    <path d="M632 282l80-42 80 42-80 44z" fill="#dbeafe"/>
    <path d="M712 326v74M632 282v74l80 44 80-44v-74" fill="none" stroke="#2563eb" stroke-width="8" stroke-linejoin="round"/>
    <path d="M712 326l80-44M712 326l-80-44" fill="none" stroke="#2563eb" stroke-width="8" stroke-linecap="round"/>
  </g>
  <g filter="url(#shadow)">
    <rect x="668" y="108" width="170" height="82" rx="18" fill="#fff"/>
    <circle cx="716" cy="149" r="24" fill="#ccfbf1"/>
    <path d="M764 136h42M764 161h28" stroke="#0f766e" stroke-width="8" stroke-linecap="round"/>
  </g>
  <g filter="url(#shadow)">
    <rect x="184" y="370" width="190" height="94" rx="20" fill="#fff"/>
    <path d="M224 416h110M224 440h78" stroke="#64748b" stroke-width="10" stroke-linecap="round"/>
  </g>
  <g fill="none" stroke-linecap="round" stroke-linejoin="round">
    <path d="M430 166c-4 54-8 94 16 140" stroke="#1e293b" stroke-width="18"/>
    <circle cx="442" cy="118" r="38" fill="#1e293b" stroke="#1e293b" stroke-width="8"/>
    <path d="M438 210c-42 40-78 73-132 98" stroke="#1e293b" stroke-width="22"/>
    <path d="M450 218c48 30 92 54 160 74" stroke="#1e293b" stroke-width="22"/>
    <path d="M444 308c-22 54-42 102-96 148" stroke="#1e293b" stroke-width="22"/>
    <path d="M456 310c38 48 72 96 118 150" stroke="#1e293b" stroke-width="22"/>
  </g>
  <path d="M512 210c48 12 94 38 138 78" fill="none" stroke="url(#accent)" stroke-width="10" stroke-linecap="round" stroke-dasharray="1 22"/>
  <path d="M348 306c-42 22-74 50-96 86" fill="none" stroke="#0f766e" stroke-width="8" stroke-linecap="round" stroke-dasharray="1 20"/>
  <g fill="#fff" stroke="url(#accent)" stroke-width="8">
    <circle cx="610" cy="292" r="18"/>
    <circle cx="348" cy="306" r="18"/>
    <circle cx="512" cy="210" r="18"/>
  </g>
  <g font-family="Segoe UI, Arial, sans-serif" font-size="26" font-weight="700" fill="#1f2a44">
    <text x="76" y="88">Human-Object Interaction</text>
    <text x="76" y="526" font-size="20" font-weight="600" fill="#475569">human, object, action semantics, spatial relation</text>
  </g>
</svg>
