<svg xmlns="http://www.w3.org/2000/svg" viewBox="0 0 960 600" role="img" aria-labelledby="title desc">
  <title id="title">Text-to-3D human interaction illustration</title>
  <desc id="desc">A text prompt flows into a 3D human-object motion scene.</desc>
  <defs>
    <linearGradient id="bg" x1="0" x2="1" y1="0" y2="1">
      <stop offset="0" stop-color="#fff7ed"/>
      <stop offset="1" stop-color="#eef2ff"/>
    </linearGradient>
    <linearGradient id="orangeBlue" x1="0" x2="1" y1="0" y2="1">
      <stop offset="0" stop-color="#f97316"/>
      <stop offset="1" stop-color="#4f46e5"/>
    </linearGradient>
    <filter id="shadow" x="-20%" y="-20%" width="140%" height="140%">
      <feDropShadow dx="0" dy="18" stdDeviation="18" flood-color="#1f2937" flood-opacity=".14"/>
    </filter>
  </defs>
  <rect width="960" height="600" rx="28" fill="url(#bg)"/>
  <g transform="translate(76 116)" filter="url(#shadow)">
    <rect width="292" height="178" rx="24" fill="#fff"/>
    <path d="M40 58h200M40 96h156M40 134h216" stroke="#f97316" stroke-width="14" stroke-linecap="round"/>
    <path d="M238 178l38 44-8-54" fill="#fff"/>
  </g>
  <path d="M404 210c70-2 112 18 158 62" fill="none" stroke="url(#orangeBlue)" stroke-width="14" stroke-linecap="round"/>
  <path d="M552 226l34 54-62-18" fill="none" stroke="#4f46e5" stroke-width="12" stroke-linecap="round" stroke-linejoin="round"/>
  <g transform="translate(574 112)" filter="url(#shadow)">
    <rect width="278" height="308" rx="28" fill="#fff"/>
    <path d="M58 230l82 48 86-48M58 230l82-44 86 44M140 186v92" fill="none" stroke="#c7d2fe" stroke-width="7" stroke-linejoin="round"/>
    <g fill="none" stroke="#312e81" stroke-linecap="round" stroke-linejoin="round">
      <circle cx="124" cy="70" r="26" fill="#312e81" stroke="#312e81" stroke-width="7"/>
      <path d="M124 100v68M124 126l-52 46M124 126l66 38M124 168l-38 64M124 168l50 62" stroke-width="14"/>
    </g>
    <rect x="168" y="176" width="58" height="58" rx="12" fill="#fed7aa" stroke="#f97316" stroke-width="8"/>
    <path d="M80 272h122" stroke="#64748b" stroke-width="10" stroke-linecap="round"/>
  </g>
  <g opacity=".85">
    <circle cx="472" cy="392" r="10" fill="#f97316"/>
    <circle cx="512" cy="424" r="8" fill="#4f46e5"/>
    <circle cx="544" cy="378" r="6" fill="#f97316"/>
    <path d="M472 392l40 32 32-46" stroke="#94a3b8" stroke-width="4" fill="none"/>
  </g>
  <g font-family="Segoe UI, Arial, sans-serif" fill="#1f2a44">
    <text x="76" y="88" font-size="26" font-weight="700">Text-to-3D Human Interaction</text>
    <text x="76" y="526" font-size="20" font-weight="600" fill="#475569">language prompt to motion, body pose, object-aware 3D scene</text>
  </g>
</svg>
